<svg xmlns="http://www.w3.org/2000/svg" width="640" height="480" viewBox="0 0 640 480"><defs><filter id="shadow" x="-30%" y="-30%" width="160%" height="180%"><feDropShadow dx="0" dy="12" stdDeviation="12" flood-color="#192443" flood-opacity=".09"/></filter></defs><rect width="640" height="480" fill="#3D4832"/><g filter="url(#shadow)"><rect x="104" y="92" width="432" height="292" rx="18" fill="#4B533B"/><path d="M106 146h428" stroke="#66704E"/><circle cx="135" cy="119" r="6" fill="#A5B386"/><text x="155" y="125" fill="#F6F5ED" font-family="sans-serif" font-size="15">Sistemas conectados</text><path d="M320 223 205 297m115-74 115 74m-230 0h230" stroke="#A5B386" stroke-width="3" stroke-dasharray="5 5"/><rect x="286" y="195" width="68" height="56" rx="12" fill="#3D4832" stroke="#A5B386" stroke-opacity=".3"/><path d="M307 223h26m-13-13v26" stroke="#A5B386" stroke-width="3" stroke-linecap="round"/><rect x="171" y="269" width="68" height="56" rx="12" fill="#3D4832" stroke="#A5B386" stroke-opacity=".3"/><path d="M192 297h26m-13-13v26" stroke="#A5B386" stroke-width="3" stroke-linecap="round"/><rect x="401" y="269" width="68" height="56" rx="12" fill="#3D4832" stroke="#A5B386" stroke-opacity=".3"/><path d="M422 297h26m-13-13v26" stroke="#A5B386" stroke-width="3" stroke-linecap="round"/></g></svg>